<svg width="20" height="20" viewBox="0 0 20 20" fill="none" xmlns="http://www.w3.org/2000/svg">
<path d="M4.70084 15.6977C4.53415 15.6632 4.4008 15.6287 4.23411 15.5597C4.06742 15.4907 3.93407 15.4562 3.80072 15.3872C3.50068 15.2492 3.23398 15.0768 2.96728 14.8698C2.43387 14.4904 2.00048 13.9729 1.66711 13.3521C1.33373 12.7656 1.1337 12.0758 1.10037 11.4204C1.06703 11.0754 1.10037 10.765 1.1337 10.42C1.16704 10.2476 1.20038 10.1096 1.23372 9.93711C1.26705 9.76464 1.33373 9.62666 1.36707 9.45419L1.4004 9.93711C1.4004 10.1096 1.43374 10.2476 1.46708 10.42C1.50042 10.7305 1.56709 11.0409 1.63377 11.3169C1.76712 11.9033 1.96715 12.4552 2.26718 12.9726C2.56722 13.49 2.9006 13.9729 3.33399 14.4214C3.53402 14.6283 3.76738 14.8353 4.00074 15.0423C4.10076 15.1458 4.23411 15.2492 4.36746 15.3527L4.70084 15.6977ZM4.60082 16.9395C4.50081 17.0085 4.36746 17.0429 4.23411 17.0774C4.10076 17.1119 4.00074 17.1464 3.86739 17.1464C3.63403 17.1809 3.36733 17.2154 3.10063 17.1809C2.60056 17.1464 2.06716 17.0085 1.63377 16.767C1.16704 16.5255 0.766988 16.1461 0.500287 15.6977C0.366936 15.4907 0.233585 15.2492 0.133572 15.0078C0.100234 14.9043 0.0668966 14.7663 0.0335589 14.6283C0.0335589 14.5249 0.000221252 14.4214 0.000221252 14.2834C0.100234 14.3869 0.16691 14.4904 0.233585 14.5594C0.333598 14.6628 0.400274 14.7663 0.466949 14.8353C0.633637 15.0078 0.766988 15.1803 0.933677 15.3182C1.26705 15.6287 1.60043 15.9046 2.00048 16.1116C2.3672 16.3186 2.80059 16.491 3.20064 16.629C3.40067 16.698 3.63403 16.7325 3.86739 16.8015C3.96741 16.836 4.10076 16.836 4.20077 16.8705C4.36746 16.905 4.46747 16.905 4.60082 16.9395ZM12.1351 0.175209C12.3018 0.209703 12.4352 0.278692 12.6019 0.347681C12.7686 0.416669 12.9019 0.485658 13.0353 0.554647C13.3353 0.727118 13.602 0.89959 13.8687 1.10656C14.4021 1.52049 14.8355 2.0724 15.1355 2.6933C15.4356 3.31419 15.6023 4.00408 15.6023 4.65947C15.6023 5.00442 15.5689 5.31487 15.5022 5.65981C15.4689 5.83228 15.4356 5.97026 15.3689 6.14273C15.3022 6.3152 15.2689 6.45318 15.2022 6.59116L15.1689 6.10824C15.1689 5.93577 15.1689 5.79779 15.1355 5.62532L15.0355 4.69397C14.9355 4.10756 14.7355 3.52116 14.4688 2.96925C14.2021 2.41734 13.8687 1.93442 13.4686 1.48599C13.2686 1.24453 13.0353 1.03757 12.8352 0.796107C12.7352 0.692624 12.6019 0.589141 12.4685 0.485658L12.1351 0.175209ZM15.0355 0.0372314C15.1689 0.0717258 15.2689 0.10622 15.3689 0.175209C15.4689 0.209703 15.6023 0.278692 15.7023 0.347681C15.9023 0.485658 16.1023 0.623635 16.3024 0.796107C16.6691 1.14105 16.9691 1.55498 17.1358 2.0379C17.3358 2.52082 17.4025 3.03824 17.3358 3.55566C17.3025 3.79712 17.2358 4.03858 17.1691 4.28004C17.1358 4.38352 17.0691 4.5215 17.0358 4.62498C16.9691 4.72846 16.9358 4.83195 16.8358 4.93543V4.59049V4.24554C16.8358 4.00408 16.8024 3.79712 16.8024 3.59015C16.7357 3.14172 16.6691 2.72779 16.5024 2.34835C16.3357 1.93442 16.1357 1.58948 15.9023 1.21004C15.769 1.03757 15.6356 0.830602 15.5022 0.65813C15.4356 0.554647 15.3689 0.485658 15.2689 0.382175C15.2022 0.209703 15.1022 0.10622 15.0355 0.0372314Z" fill="#42ADE2"/>
<path d="M2.66715 5.17691C2.0004 5.48736 1.76704 6.31523 2.06708 7.00511L6.26763 16.0771L8.60126 14.9388L4.40071 5.83231C4.10068 5.14242 3.33391 4.83197 2.66715 5.17691ZM13.7019 12.3862L16.1689 11.1789L11.3683 0.830624C11.0349 0.140737 10.2348 -0.169712 9.53472 0.175232C8.86797 0.520175 8.56793 1.34804 8.9013 2.07242L13.7019 12.3862Z" fill="#FFDD67"/>
<path d="M9.56864 0.140917C9.50196 0.175412 9.43529 0.209906 9.36861 0.278895C10.002 0.106423 10.6688 0.416872 10.9688 1.03777L15.7694 11.3861L16.2028 11.1791L11.4022 0.830804C11.0688 0.106423 10.2687 -0.204026 9.56864 0.140917Z" fill="#EBA352"/>
<path d="M8.60152 14.9044L11.1685 13.6281L6.26788 3.07279C5.9345 2.34841 5.06772 2.00347 4.36763 2.34841C3.66754 2.69336 3.3675 3.59021 3.70087 4.31459L8.60152 14.9044Z" fill="#FFDD67"/>
<path d="M4.36716 2.38323C4.30048 2.41773 4.2338 2.45222 4.16713 2.52121C4.80055 2.34874 5.53398 2.65919 5.83401 3.31458L8.86774 9.903L9.60117 10.3514L6.2674 3.10761C5.93403 2.34874 5.10059 2.03829 4.36716 2.38323Z" fill="#EBA352"/>
<path d="M10.7683 12.8001L13.3353 11.5238L8.43469 0.968494C8.10131 0.244113 7.23453 -0.100831 6.53444 0.278607C5.83435 0.62355 5.53431 1.5204 5.86768 2.24478L10.7683 12.8001Z" fill="#FFDD67"/>
<path d="M6.53453 0.244561C6.46785 0.279055 6.40118 0.348044 6.3345 0.382538C6.96792 0.210066 7.70135 0.520515 8.00139 1.17591L11.4352 8.62669L12.1686 9.07511L8.43478 0.968942C8.1014 0.210066 7.23462 -0.100383 6.53453 0.244561ZM2.66736 5.17725C2.60068 5.21175 2.53401 5.24624 2.46733 5.31523C3.06741 5.14276 3.70083 5.45321 3.96753 6.07411L6.46785 11.4897L7.20128 11.9381L4.40092 5.86714C4.10088 5.14276 3.33411 4.83231 2.66736 5.17725Z" fill="#EBA352"/>
<path d="M19.6027 4.14189C18.7026 3.4175 17.2357 4.21087 16.5023 6.69447C16.0023 8.41918 15.9356 8.9366 14.8688 9.45401L14.2687 8.17772C14.2687 8.17772 4.80079 12.9034 5.1675 13.6623C5.1675 13.6623 6.30099 17.3187 8.23457 19.0089C11.1016 21.5615 17.8025 18.8365 18.1025 12.2481C18.2692 8.41918 20.5695 4.93526 19.6027 4.14189Z" fill="#FFDD67"/>
<path d="M19.6029 4.14222C19.4362 4.00424 19.2361 3.93525 19.0361 3.90076C19.0695 3.93525 19.1361 3.93525 19.1695 3.96975C20.1696 4.76312 19.1361 6.59132 18.5694 8.24705C18.1027 9.55783 17.7026 10.9031 17.7693 12.2139C18.036 17.94 12.4686 20.665 9.13482 19.6302C12.4019 21.0445 18.4694 18.3539 18.2027 12.3864C18.136 11.0756 18.5027 9.79929 19.0028 8.41952C19.5362 6.76379 20.5696 4.93559 19.6029 4.14222Z" fill="#EBA352"/>
<path d="M15.1691 9.31631C13.1021 9.55778 10.0684 12.6278 12.202 15.9737C10.6351 12.5933 13.2021 10.3167 14.8357 9.52328C15.0024 9.3853 15.1691 9.31631 15.1691 9.31631Z" fill="#EBA352"/>
</svg>
