<svg width="20" height="21" viewBox="0 0 20 21" fill="none" xmlns="http://www.w3.org/2000/svg">
<path d="M11.9336 16.3917C11.9336 16.9 11.6002 17.5667 11.1752 17.825L10.0002 18.5833C8.90858 19.2583 7.39191 18.5 7.39191 17.15V12.6917C7.39191 12.1 7.05858 11.3417 6.71691 10.925L3.51689 7.55833C3.09189 7.13333 2.75858 6.38334 2.75858 5.875V3.94167C2.75858 2.93333 3.51693 2.175 4.44193 2.175H15.5586C16.4836 2.175 17.2419 2.93333 17.2419 3.85833V5.70833C17.2419 6.38333 16.8169 7.225 16.4002 7.64167" stroke="white" stroke-width="1.25" stroke-miterlimit="10" stroke-linecap="round" stroke-linejoin="round"/>
<path d="M13.3919 14.2667C14.8647 14.2667 16.0586 13.0728 16.0586 11.6C16.0586 10.1273 14.8647 8.93333 13.3919 8.93333C11.9192 8.93333 10.7252 10.1273 10.7252 11.6C10.7252 13.0728 11.9192 14.2667 13.3919 14.2667Z" stroke="white" stroke-width="1.25" stroke-linecap="round" stroke-linejoin="round"/>
<path d="M16.5586 14.7667L15.7252 13.9333" stroke="white" stroke-width="1.25" stroke-linecap="round" stroke-linejoin="round"/>
</svg>
