<svg width="24" height="25" viewBox="0 0 24 25" fill="none" xmlns="http://www.w3.org/2000/svg">
<path d="M12.0205 3.41C8.71045 3.41 6.02045 6.1 6.02045 9.41V12.3C6.02045 12.91 5.76045 13.84 5.45045 14.36L4.30045 16.27C3.59045 17.45 4.08045 18.76 5.38045 19.2C9.69045 20.64 14.3405 20.64 18.6505 19.2C19.8605 18.8 20.3905 17.37 19.7305 16.27L18.5805 14.36C18.2805 13.84 18.0205 12.91 18.0205 12.3V9.41C18.0205 6.11 15.3205 3.41 12.0205 3.41Z" stroke="#1C1C1C" stroke-width="1.5" stroke-miterlimit="10" stroke-linecap="round"/>
<path d="M13.8705 3.7C13.5605 3.61 13.2405 3.54 12.9105 3.5C11.9505 3.38 11.0305 3.45 10.1705 3.7C10.4605 2.96 11.1805 2.44 12.0205 2.44C12.8605 2.44 13.5805 2.96 13.8705 3.7Z" stroke="#1C1C1C" stroke-width="1.5" stroke-miterlimit="10" stroke-linecap="round" stroke-linejoin="round"/>
<path d="M15.0205 19.56C15.0205 21.21 13.6705 22.56 12.0205 22.56C11.2005 22.56 10.4405 22.22 9.90046 21.68C9.36046 21.14 9.02046 20.38 9.02046 19.56" stroke="#1C1C1C" stroke-width="1.5" stroke-miterlimit="10"/>
</svg>
