<svg width="80" height="16" viewBox="0 0 80 16" fill="none" xmlns="http://www.w3.org/2000/svg">
<path d="M7.04894 2.92705C7.3483 2.00574 8.6517 2.00574 8.95106 2.92705L9.5716 4.83688C9.70547 5.2489 10.0894 5.52786 10.5227 5.52786H12.5308C13.4995 5.52786 13.9023 6.76748 13.1186 7.33688L11.494 8.51722C11.1435 8.77187 10.9968 9.22323 11.1307 9.63525L11.7512 11.5451C12.0506 12.4664 10.9961 13.2325 10.2124 12.6631L8.58778 11.4828C8.2373 11.2281 7.7627 11.2281 7.41221 11.4828L5.78761 12.6631C5.0039 13.2325 3.94942 12.4664 4.24878 11.5451L4.86932 9.63526C5.00319 9.22323 4.85653 8.77186 4.50604 8.51722L2.88144 7.33688C2.09773 6.76748 2.50051 5.52786 3.46923 5.52786H5.47735C5.91057 5.52786 6.29453 5.2489 6.4284 4.83688L7.04894 2.92705Z" fill="#006D33"/>
<path d="M23.0489 2.92705C23.3483 2.00574 24.6517 2.00574 24.9511 2.92705L25.5716 4.83688C25.7055 5.2489 26.0894 5.52786 26.5227 5.52786H28.5308C29.4995 5.52786 29.9023 6.76748 29.1186 7.33688L27.494 8.51722C27.1435 8.77187 26.9968 9.22323 27.1307 9.63525L27.7512 11.5451C28.0506 12.4664 26.9961 13.2325 26.2124 12.6631L24.5878 11.4828C24.2373 11.2281 23.7627 11.2281 23.4122 11.4828L21.7876 12.6631C21.0039 13.2325 19.9494 12.4664 20.2488 11.5451L20.8693 9.63526C21.0032 9.22323 20.8565 8.77186 20.506 8.51722L18.8814 7.33688C18.0977 6.76748 18.5005 5.52786 19.4692 5.52786H21.4773C21.9106 5.52786 22.2945 5.2489 22.4284 4.83688L23.0489 2.92705Z" fill="#006D33"/>
<path d="M39.0489 2.92705C39.3483 2.00574 40.6517 2.00574 40.9511 2.92705L41.5716 4.83688C41.7055 5.2489 42.0894 5.52786 42.5227 5.52786H44.5308C45.4995 5.52786 45.9023 6.76748 45.1186 7.33688L43.494 8.51722C43.1435 8.77187 42.9968 9.22323 43.1307 9.63525L43.7512 11.5451C44.0506 12.4664 42.9961 13.2325 42.2124 12.6631L40.5878 11.4828C40.2373 11.2281 39.7627 11.2281 39.4122 11.4828L37.7876 12.6631C37.0039 13.2325 35.9494 12.4664 36.2488 11.5451L36.8693 9.63526C37.0032 9.22323 36.8565 8.77186 36.506 8.51722L34.8814 7.33688C34.0977 6.76748 34.5005 5.52786 35.4692 5.52786H37.4773C37.9106 5.52786 38.2945 5.2489 38.4284 4.83688L39.0489 2.92705Z" fill="#006D33"/>
<path d="M55.0489 2.92705C55.3483 2.00574 56.6517 2.00574 56.9511 2.92705L57.5716 4.83688C57.7055 5.2489 58.0894 5.52786 58.5227 5.52786H60.5308C61.4995 5.52786 61.9023 6.76748 61.1186 7.33688L59.494 8.51722C59.1435 8.77187 58.9968 9.22323 59.1307 9.63525L59.7512 11.5451C60.0506 12.4664 58.9961 13.2325 58.2124 12.6631L56.5878 11.4828C56.2373 11.2281 55.7627 11.2281 55.4122 11.4828L53.7876 12.6631C53.0039 13.2325 51.9494 12.4664 52.2488 11.5451L52.8693 9.63526C53.0032 9.22323 52.8565 8.77186 52.506 8.51722L50.8814 7.33688C50.0977 6.76748 50.5005 5.52786 51.4692 5.52786H53.4773C53.9106 5.52786 54.2945 5.2489 54.4284 4.83688L55.0489 2.92705Z" fill="#006D33"/>
<path d="M71.0676 2.40576C71.3976 1.55427 72.6024 1.55427 72.9324 2.40576L73.789 4.61574C73.9308 4.98181 74.2738 5.231 74.6658 5.25281L77.0323 5.3845C77.9441 5.43524 78.3164 6.58108 77.6086 7.15807L75.7714 8.6556C75.4671 8.90366 75.3361 9.30685 75.4365 9.68641L76.0426 11.9778C76.2761 12.8606 75.3014 13.5688 74.5339 13.0739L72.5419 11.7894C72.212 11.5767 71.788 11.5767 71.4581 11.7894L69.4661 13.0739C68.6986 13.5688 67.7239 12.8606 67.9574 11.9778L68.5635 9.68641C68.6639 9.30685 68.5329 8.90366 68.2286 8.6556L66.3914 7.15807C65.6836 6.58108 66.0559 5.43524 66.9677 5.3845L69.3342 5.25281C69.7262 5.231 70.0692 4.98181 70.211 4.61574L71.0676 2.40576Z" fill="url(#paint0_linear_5_132)"/>
<defs>
<linearGradient id="paint0_linear_5_132" x1="65.5" y1="7.79486" x2="73.5" y2="7.79486" gradientUnits="userSpaceOnUse">
<stop offset="0.812384" stop-color="#006D33"/>
<stop offset="0.831089" stop-color="#707070" stop-opacity="0.34"/>
</linearGradient>
</defs>
</svg>
